<svg width="723" height="37" viewBox="0 0 723 37" fill="none" xmlns="http://www.w3.org/2000/svg">
<path d="M0.044 29L5.084 3.8H10.952L5.912 29H0.044ZM19.7405 36.272C17.8685 36.272 16.1405 36.056 14.5565 35.624C12.9965 35.192 11.6525 34.556 10.5245 33.716L13.1885 29.648C13.9565 30.272 14.9405 30.776 16.1405 31.16C17.3645 31.544 18.6485 31.736 19.9925 31.736C21.9365 31.736 23.3885 31.316 24.3485 30.476C25.3325 29.636 25.9925 28.388 26.3285 26.732L27.0125 23.24L28.3085 18.704L29.1725 13.808L29.9645 9.632H35.3285L32.1245 25.76C31.3805 29.48 29.9645 32.156 27.8765 33.788C25.8125 35.444 23.1005 36.272 19.7405 36.272ZM20.5685 28.064C18.9845 28.064 17.5445 27.74 16.2485 27.092C14.9525 26.444 13.9205 25.52 13.1525 24.32C12.3845 23.096 12.0005 21.632 12.0005 19.928C12.0005 18.44 12.2645 17.06 12.7925 15.788C13.3445 14.516 14.1005 13.4 15.0605 12.44C16.0445 11.456 17.1845 10.7 18.4805 10.172C19.8005 9.62 21.2405 9.344 22.8005 9.344C24.2165 9.344 25.5005 9.608 26.6525 10.136C27.8045 10.664 28.6925 11.516 29.3165 12.692C29.9645 13.868 30.2045 15.44 30.0365 17.408C29.8925 19.544 29.4245 21.416 28.6325 23.024C27.8405 24.608 26.7605 25.844 25.3925 26.732C24.0485 27.62 22.4405 28.064 20.5685 28.064ZM22.0805 23.456C23.1845 23.456 24.1565 23.216 24.9965 22.736C25.8365 22.256 26.4965 21.596 26.9765 20.756C27.4565 19.892 27.6965 18.908 27.6965 17.804C27.6965 16.628 27.3125 15.704 26.5445 15.032C25.7765 14.336 24.7085 13.988 23.3405 13.988C22.2365 13.988 21.2525 14.228 20.3885 14.708C19.5485 15.188 18.8765 15.86 18.3725 16.724C17.8925 17.564 17.6525 18.536 17.6525 19.64C17.6525 20.816 18.0485 21.752 18.8405 22.448C19.6325 23.12 20.7125 23.456 22.0805 23.456ZM51.8235 9.344C53.4795 9.344 54.8835 9.692 56.0355 10.388C57.1875 11.06 58.0035 12.056 58.4835 13.376C58.9635 14.696 59.0115 16.328 58.6275 18.272L56.4675 29H50.8515L52.9395 18.632C53.2275 17.216 53.1075 16.124 52.5795 15.356C52.0755 14.588 51.1395 14.204 49.7715 14.204C48.3555 14.204 47.1675 14.612 46.2075 15.428C45.2715 16.244 44.6235 17.492 44.2635 19.172L42.3195 29H36.7035L40.5555 9.632H45.8835L44.7675 15.104L43.9755 13.448C44.9115 12.032 46.0635 11 47.4315 10.352C48.8235 9.68 50.2875 9.344 51.8235 9.344ZM61.5942 29L65.4462 9.632H71.0262L67.1742 29H61.5942ZM69.1902 6.932C68.2062 6.932 67.4142 6.656 66.8142 6.104C66.2142 5.528 65.9142 4.832 65.9142 4.016C65.9142 3.056 66.2502 2.264 66.9222 1.64C67.6182 0.991998 68.5182 0.667998 69.6222 0.667998C70.6062 0.667998 71.3982 0.943998 71.9982 1.496C72.6222 2.024 72.9342 2.684 72.9342 3.476C72.9342 4.508 72.5862 5.348 71.8902 5.996C71.2182 6.62 70.3182 6.932 69.1902 6.932ZM80.2711 29.288C78.8791 29.288 77.6911 29.012 76.7071 28.46C75.7231 27.884 75.0151 27.068 74.5831 26.012C74.1751 24.932 74.1151 23.66 74.4031 22.196L77.7511 5.348H83.3671L80.0191 22.16C79.8751 22.976 79.9591 23.624 80.2711 24.104C80.5831 24.584 81.1591 24.824 81.9991 24.824C82.3831 24.824 82.7671 24.764 83.1511 24.644C83.5591 24.524 83.9311 24.356 84.2671 24.14L85.0951 28.136C84.3991 28.568 83.6311 28.868 82.7911 29.036C81.9511 29.204 81.1111 29.288 80.2711 29.288ZM72.9631 14.384L73.8271 10.064H87.2551L86.3911 14.384H72.9631ZM88.0317 29L91.8837 9.632H97.4637L93.6117 29H88.0317ZM95.6277 6.932C94.6437 6.932 93.8517 6.656 93.2517 6.104C92.6517 5.528 92.3517 4.832 92.3517 4.016C92.3517 3.056 92.6877 2.264 93.3597 1.64C94.0557 0.991998 94.9557 0.667998 96.0597 0.667998C97.0437 0.667998 97.8357 0.943998 98.4357 1.496C99.0597 2.024 99.3717 2.684 99.3717 3.476C99.3717 4.508 99.0237 5.348 98.3277 5.996C97.6557 6.62 96.7557 6.932 95.6277 6.932ZM113.945 9.344C115.601 9.344 117.005 9.692 118.157 10.388C119.309 11.06 120.125 12.056 120.605 13.376C121.085 14.696 121.133 16.328 120.749 18.272L118.589 29H112.973L115.061 18.632C115.349 17.216 115.229 16.124 114.701 15.356C114.197 14.588 113.261 14.204 111.893 14.204C110.477 14.204 109.289 14.612 108.329 15.428C107.393 16.244 106.745 17.492 106.385 19.172L104.441 29H98.8246L102.677 9.632H108.005L106.889 15.104L106.097 13.448C107.033 12.032 108.185 11 109.553 10.352C110.945 9.68 112.409 9.344 113.945 9.344ZM132.03 36.272C130.158 36.272 128.43 36.056 126.846 35.624C125.286 35.192 123.942 34.556 122.814 33.716L125.478 29.648C126.246 30.272 127.23 30.776 128.43 31.16C129.654 31.544 130.938 31.736 132.282 31.736C134.226 31.736 135.678 31.316 136.638 30.476C137.622 29.636 138.282 28.388 138.618 26.732L139.302 23.24L140.598 18.704L141.462 13.808L142.254 9.632H147.618L144.414 25.76C143.67 29.48 142.254 32.156 140.166 33.788C138.102 35.444 135.39 36.272 132.03 36.272ZM132.858 28.064C131.274 28.064 129.834 27.74 128.538 27.092C127.242 26.444 126.21 25.52 125.442 24.32C124.674 23.096 124.29 21.632 124.29 19.928C124.29 18.44 124.554 17.06 125.082 15.788C125.634 14.516 126.39 13.4 127.35 12.44C128.334 11.456 129.474 10.7 130.77 10.172C132.09 9.62 133.53 9.344 135.09 9.344C136.506 9.344 137.79 9.608 138.942 10.136C140.094 10.664 140.982 11.516 141.606 12.692C142.254 13.868 142.494 15.44 142.326 17.408C142.182 19.544 141.714 21.416 140.922 23.024C140.13 24.608 139.05 25.844 137.682 26.732C136.338 27.62 134.73 28.064 132.858 28.064ZM134.37 23.456C135.474 23.456 136.446 23.216 137.286 22.736C138.126 22.256 138.786 21.596 139.266 20.756C139.746 19.892 139.986 18.908 139.986 17.804C139.986 16.628 139.602 15.704 138.834 15.032C138.066 14.336 136.998 13.988 135.63 13.988C134.526 13.988 133.542 14.228 132.678 14.708C131.838 15.188 131.166 15.86 130.662 16.724C130.182 17.564 129.942 18.536 129.942 19.64C129.942 20.816 130.338 21.752 131.13 22.448C131.922 23.12 133.002 23.456 134.37 23.456ZM167.936 29.288C166.448 29.288 165.068 28.952 163.796 28.28C162.524 27.584 161.504 26.588 160.736 25.292C159.968 23.996 159.584 22.436 159.584 20.612C159.584 18.98 159.848 17.48 160.376 16.112C160.928 14.744 161.696 13.556 162.68 12.548C163.664 11.54 164.804 10.76 166.1 10.208C167.396 9.632 168.788 9.344 170.276 9.344C171.884 9.344 173.264 9.644 174.416 10.244C175.568 10.844 176.42 11.78 176.972 13.052C177.548 14.3 177.752 15.92 177.584 17.912C177.464 20.192 176.996 22.196 176.18 23.924C175.364 25.628 174.26 26.948 172.868 27.884C171.5 28.82 169.856 29.288 167.936 29.288ZM169.664 24.644C170.768 24.644 171.74 24.38 172.58 23.852C173.444 23.3 174.116 22.556 174.596 21.62C175.1 20.66 175.352 19.544 175.352 18.272C175.352 16.952 174.956 15.908 174.164 15.14C173.396 14.372 172.316 13.988 170.924 13.988C169.844 13.988 168.872 14.264 168.008 14.816C167.144 15.344 166.46 16.088 165.956 17.048C165.476 17.984 165.236 19.088 165.236 20.36C165.236 21.68 165.62 22.724 166.388 23.492C167.18 24.26 168.272 24.644 169.664 24.644ZM173.516 29L174.272 25.148L175.532 19.388L176.288 13.628L177.08 9.632H182.696L178.844 29H173.516ZM194.599 29L199.639 3.8H209.899C213.043 3.8 215.467 4.484 217.171 5.852C218.899 7.22 219.763 9.14 219.763 11.612C219.763 13.724 219.259 15.56 218.251 17.12C217.267 18.656 215.851 19.844 214.003 20.684C212.179 21.524 210.019 21.944 207.523 21.944H199.315L202.375 19.388L200.467 29H194.599ZM210.799 29L205.651 19.856H211.771L216.955 29H210.799ZM202.231 20.072L200.215 17.3H207.739C209.683 17.3 211.183 16.868 212.239 16.004C213.319 15.116 213.859 13.832 213.859 12.152C213.859 10.928 213.439 10.028 212.599 9.452C211.783 8.852 210.631 8.552 209.143 8.552H202.051L205.111 5.708L202.231 20.072ZM231.007 29.288C228.991 29.288 227.239 28.928 225.751 28.208C224.287 27.488 223.147 26.48 222.331 25.184C221.515 23.888 221.107 22.364 221.107 20.612C221.107 18.452 221.587 16.532 222.547 14.852C223.531 13.148 224.875 11.804 226.579 10.82C228.307 9.836 230.287 9.344 232.519 9.344C234.415 9.344 236.047 9.704 237.415 10.424C238.783 11.12 239.839 12.104 240.583 13.376C241.351 14.624 241.735 16.124 241.735 17.876C241.735 18.38 241.699 18.884 241.627 19.388C241.579 19.892 241.507 20.372 241.411 20.828H225.391L225.967 17.552H238.783L236.479 18.56C236.671 17.48 236.611 16.58 236.299 15.86C235.987 15.116 235.483 14.552 234.787 14.168C234.091 13.76 233.251 13.556 232.267 13.556C231.043 13.556 229.999 13.856 229.135 14.456C228.295 15.032 227.659 15.836 227.227 16.868C226.795 17.9 226.579 19.064 226.579 20.36C226.579 21.848 226.987 22.964 227.803 23.708C228.643 24.428 229.903 24.788 231.583 24.788C232.567 24.788 233.515 24.632 234.427 24.32C235.339 24.008 236.119 23.564 236.767 22.988L239.107 26.696C237.979 27.584 236.707 28.244 235.291 28.676C233.899 29.084 232.471 29.288 231.007 29.288ZM248.221 29L243.937 9.632H249.481L253.045 26.3H250.165L260.425 9.632H266.041L254.017 29H248.221ZM274.07 29.288C272.102 29.288 270.386 28.928 268.922 28.208C267.458 27.488 266.318 26.48 265.502 25.184C264.71 23.888 264.314 22.364 264.314 20.612C264.314 18.452 264.818 16.532 265.826 14.852C266.834 13.148 268.214 11.804 269.966 10.82C271.742 9.836 273.758 9.344 276.014 9.344C278.006 9.344 279.722 9.704 281.162 10.424C282.626 11.144 283.754 12.152 284.546 13.448C285.362 14.72 285.77 16.244 285.77 18.02C285.77 20.156 285.266 22.076 284.258 23.78C283.25 25.484 281.87 26.828 280.118 27.812C278.366 28.796 276.35 29.288 274.07 29.288ZM274.43 24.68C275.534 24.68 276.506 24.416 277.346 23.888C278.21 23.336 278.882 22.58 279.362 21.62C279.842 20.66 280.082 19.544 280.082 18.272C280.082 16.976 279.698 15.932 278.93 15.14C278.162 14.348 277.082 13.952 275.69 13.952C274.586 13.952 273.602 14.228 272.738 14.78C271.898 15.308 271.226 16.052 270.722 17.012C270.242 17.972 270.002 19.088 270.002 20.36C270.002 21.68 270.386 22.736 271.154 23.528C271.922 24.296 273.014 24.68 274.43 24.68ZM287.508 29L292.836 2.288H298.452L293.124 29H287.508ZM306.616 29.288C305.032 29.288 303.664 28.952 302.512 28.28C301.36 27.584 300.544 26.576 300.064 25.256C299.584 23.936 299.536 22.304 299.92 20.36L302.044 9.632H307.66L305.608 20C305.32 21.416 305.428 22.508 305.932 23.276C306.46 24.044 307.384 24.428 308.704 24.428C310.096 24.428 311.26 24.02 312.196 23.204C313.156 22.388 313.792 21.14 314.104 19.46L316.084 9.632H321.7L317.848 29H312.52L313.6 23.528L314.392 25.184C313.48 26.6 312.34 27.644 310.972 28.316C309.604 28.964 308.152 29.288 306.616 29.288ZM330.935 29.288C329.543 29.288 328.355 29.012 327.371 28.46C326.387 27.884 325.679 27.068 325.247 26.012C324.839 24.932 324.779 23.66 325.067 22.196L328.415 5.348H334.031L330.683 22.16C330.539 22.976 330.623 23.624 330.935 24.104C331.247 24.584 331.823 24.824 332.663 24.824C333.047 24.824 333.431 24.764 333.815 24.644C334.223 24.524 334.595 24.356 334.931 24.14L335.759 28.136C335.063 28.568 334.295 28.868 333.455 29.036C332.615 29.204 331.775 29.288 330.935 29.288ZM323.627 14.384L324.491 10.064H337.919L337.055 14.384H323.627ZM338.696 29L342.548 9.632H348.128L344.276 29H338.696ZM346.292 6.932C345.308 6.932 344.516 6.656 343.916 6.104C343.316 5.528 343.016 4.832 343.016 4.016C343.016 3.056 343.352 2.264 344.024 1.64C344.72 0.991998 345.62 0.667998 346.724 0.667998C347.708 0.667998 348.5 0.943998 349.1 1.496C349.724 2.024 350.036 2.684 350.036 3.476C350.036 4.508 349.688 5.348 348.992 5.996C348.32 6.62 347.42 6.932 346.292 6.932ZM359.605 29.288C357.637 29.288 355.921 28.928 354.457 28.208C352.993 27.488 351.853 26.48 351.037 25.184C350.245 23.888 349.849 22.364 349.849 20.612C349.849 18.452 350.353 16.532 351.361 14.852C352.369 13.148 353.749 11.804 355.501 10.82C357.277 9.836 359.293 9.344 361.549 9.344C363.541 9.344 365.257 9.704 366.697 10.424C368.161 11.144 369.289 12.152 370.081 13.448C370.897 14.72 371.305 16.244 371.305 18.02C371.305 20.156 370.801 22.076 369.793 23.78C368.785 25.484 367.405 26.828 365.653 27.812C363.901 28.796 361.885 29.288 359.605 29.288ZM359.965 24.68C361.069 24.68 362.041 24.416 362.881 23.888C363.745 23.336 364.417 22.58 364.897 21.62C365.377 20.66 365.617 19.544 365.617 18.272C365.617 16.976 365.233 15.932 364.465 15.14C363.697 14.348 362.617 13.952 361.225 13.952C360.121 13.952 359.137 14.228 358.273 14.78C357.433 15.308 356.761 16.052 356.257 17.012C355.777 17.972 355.537 19.088 355.537 20.36C355.537 21.68 355.921 22.736 356.689 23.528C357.457 24.296 358.549 24.68 359.965 24.68ZM388.163 9.344C389.819 9.344 391.223 9.692 392.375 10.388C393.527 11.06 394.343 12.056 394.823 13.376C395.303 14.696 395.351 16.328 394.967 18.272L392.807 29H387.191L389.279 18.632C389.567 17.216 389.447 16.124 388.919 15.356C388.415 14.588 387.479 14.204 386.111 14.204C384.695 14.204 383.507 14.612 382.547 15.428C381.611 16.244 380.963 17.492 380.603 19.172L378.659 29H373.043L376.895 9.632H382.223L381.107 15.104L380.315 13.448C381.251 12.032 382.403 11 383.771 10.352C385.163 9.68 386.627 9.344 388.163 9.344ZM408.129 29L411.981 9.632H417.561L413.709 29H408.129ZM415.725 6.932C414.741 6.932 413.949 6.656 413.349 6.104C412.749 5.528 412.449 4.832 412.449 4.016C412.449 3.056 412.785 2.264 413.457 1.64C414.153 0.991998 415.053 0.667998 416.157 0.667998C417.141 0.667998 417.933 0.943998 418.533 1.496C419.157 2.024 419.469 2.684 419.469 3.476C419.469 4.508 419.121 5.348 418.425 5.996C417.753 6.62 416.853 6.932 415.725 6.932ZM434.042 9.344C435.698 9.344 437.102 9.692 438.254 10.388C439.406 11.06 440.222 12.056 440.702 13.376C441.182 14.696 441.23 16.328 440.846 18.272L438.686 29H433.07L435.158 18.632C435.446 17.216 435.326 16.124 434.798 15.356C434.294 14.588 433.358 14.204 431.99 14.204C430.574 14.204 429.386 14.612 428.426 15.428C427.49 16.244 426.842 17.492 426.482 19.172L424.538 29H418.922L422.774 9.632H428.102L426.986 15.104L426.194 13.448C427.13 12.032 428.282 11 429.65 10.352C431.042 9.68 432.506 9.344 434.042 9.344ZM476.688 3.8H482.52L477.48 29H471.648L476.688 3.8ZM460.236 29H454.368L459.408 3.8H465.276L460.236 29ZM474.168 18.668H461.892L462.864 13.736H475.14L474.168 18.668ZM483.442 29L488.482 3.8H498.742C501.886 3.8 504.31 4.484 506.014 5.852C507.742 7.22 508.606 9.14 508.606 11.612C508.606 13.724 508.102 15.56 507.094 17.12C506.11 18.656 504.694 19.844 502.846 20.684C501.022 21.524 498.862 21.944 496.366 21.944H488.158L491.218 19.388L489.31 29H483.442ZM499.642 29L494.494 19.856H500.614L505.798 29H499.642ZM491.074 20.072L489.058 17.3H496.582C498.526 17.3 500.026 16.868 501.082 16.004C502.162 15.116 502.702 13.832 502.702 12.152C502.702 10.928 502.282 10.028 501.442 9.452C500.626 8.852 499.474 8.552 497.986 8.552H490.894L493.954 5.708L491.074 20.072ZM520.11 29L525.15 3.8H531.018L525.978 29H520.11ZM546.683 9.344C548.339 9.344 549.743 9.692 550.895 10.388C552.047 11.06 552.863 12.056 553.343 13.376C553.823 14.696 553.871 16.328 553.487 18.272L551.327 29H545.711L547.799 18.632C548.087 17.216 547.967 16.124 547.439 15.356C546.935 14.588 545.999 14.204 544.631 14.204C543.215 14.204 542.027 14.612 541.067 15.428C540.131 16.244 539.483 17.492 539.123 19.172L537.179 29H531.563L535.415 9.632H540.743L539.627 15.104L538.835 13.448C539.771 12.032 540.923 11 542.291 10.352C543.683 9.68 545.147 9.344 546.683 9.344ZM571.574 9.344C573.23 9.344 574.634 9.692 575.786 10.388C576.938 11.06 577.754 12.056 578.234 13.376C578.714 14.696 578.762 16.328 578.378 18.272L576.218 29H570.602L572.69 18.632C572.978 17.216 572.858 16.124 572.33 15.356C571.826 14.588 570.89 14.204 569.522 14.204C568.106 14.204 566.918 14.612 565.958 15.428C565.022 16.244 564.374 17.492 564.014 19.172L562.07 29H556.454L560.306 9.632H565.634L564.518 15.104L563.726 13.448C564.662 12.032 565.814 11 567.182 10.352C568.574 9.68 570.038 9.344 571.574 9.344ZM591.53 29.288C589.562 29.288 587.846 28.928 586.382 28.208C584.918 27.488 583.778 26.48 582.962 25.184C582.17 23.888 581.774 22.364 581.774 20.612C581.774 18.452 582.278 16.532 583.286 14.852C584.294 13.148 585.674 11.804 587.426 10.82C589.202 9.836 591.218 9.344 593.474 9.344C595.466 9.344 597.182 9.704 598.622 10.424C600.086 11.144 601.214 12.152 602.006 13.448C602.822 14.72 603.23 16.244 603.23 18.02C603.23 20.156 602.726 22.076 601.718 23.78C600.71 25.484 599.33 26.828 597.578 27.812C595.826 28.796 593.81 29.288 591.53 29.288ZM591.89 24.68C592.994 24.68 593.966 24.416 594.806 23.888C595.67 23.336 596.342 22.58 596.822 21.62C597.302 20.66 597.542 19.544 597.542 18.272C597.542 16.976 597.158 15.932 596.39 15.14C595.622 14.348 594.542 13.952 593.15 13.952C592.046 13.952 591.062 14.228 590.198 14.78C589.358 15.308 588.686 16.052 588.182 17.012C587.702 17.972 587.462 19.088 587.462 20.36C587.462 21.68 587.846 22.736 588.614 23.528C589.382 24.296 590.474 24.68 591.89 24.68ZM609.698 29L605.414 9.632H610.958L614.522 26.3H611.642L621.902 9.632H627.518L615.494 29H609.698ZM634.178 29.288C632.69 29.288 631.31 28.952 630.038 28.28C628.766 27.584 627.746 26.588 626.978 25.292C626.21 23.996 625.826 22.436 625.826 20.612C625.826 18.98 626.09 17.48 626.618 16.112C627.17 14.744 627.938 13.556 628.922 12.548C629.906 11.54 631.046 10.76 632.342 10.208C633.638 9.632 635.03 9.344 636.518 9.344C638.126 9.344 639.506 9.644 640.658 10.244C641.81 10.844 642.662 11.78 643.214 13.052C643.79 14.3 643.994 15.92 643.826 17.912C643.706 20.192 643.238 22.196 642.422 23.924C641.606 25.628 640.502 26.948 639.11 27.884C637.742 28.82 636.098 29.288 634.178 29.288ZM635.906 24.644C637.01 24.644 637.982 24.38 638.822 23.852C639.686 23.3 640.358 22.556 640.838 21.62C641.342 20.66 641.594 19.544 641.594 18.272C641.594 16.952 641.198 15.908 640.406 15.14C639.638 14.372 638.558 13.988 637.166 13.988C636.086 13.988 635.114 14.264 634.25 14.816C633.386 15.344 632.702 16.088 632.198 17.048C631.718 17.984 631.478 19.088 631.478 20.36C631.478 21.68 631.862 22.724 632.63 23.492C633.422 24.26 634.514 24.644 635.906 24.644ZM639.758 29L640.514 25.148L641.774 19.388L642.53 13.628L643.322 9.632H648.938L645.086 29H639.758ZM658.17 29.288C656.778 29.288 655.59 29.012 654.606 28.46C653.622 27.884 652.914 27.068 652.482 26.012C652.074 24.932 652.014 23.66 652.302 22.196L655.65 5.348H661.266L657.918 22.16C657.774 22.976 657.858 23.624 658.17 24.104C658.482 24.584 659.058 24.824 659.898 24.824C660.282 24.824 660.666 24.764 661.05 24.644C661.458 24.524 661.83 24.356 662.166 24.14L662.994 28.136C662.298 28.568 661.53 28.868 660.69 29.036C659.85 29.204 659.01 29.288 658.17 29.288ZM650.862 14.384L651.726 10.064H665.154L664.29 14.384H650.862ZM665.93 29L669.782 9.632H675.362L671.51 29H665.93ZM673.526 6.932C672.542 6.932 671.75 6.656 671.15 6.104C670.55 5.528 670.25 4.832 670.25 4.016C670.25 3.056 670.586 2.264 671.258 1.64C671.954 0.991998 672.854 0.667998 673.958 0.667998C674.942 0.667998 675.734 0.943998 676.334 1.496C676.958 2.024 677.27 2.684 677.27 3.476C677.27 4.508 676.922 5.348 676.226 5.996C675.554 6.62 674.654 6.932 673.526 6.932ZM686.839 29.288C684.871 29.288 683.155 28.928 681.691 28.208C680.227 27.488 679.087 26.48 678.271 25.184C677.479 23.888 677.083 22.364 677.083 20.612C677.083 18.452 677.587 16.532 678.595 14.852C679.603 13.148 680.983 11.804 682.735 10.82C684.511 9.836 686.527 9.344 688.783 9.344C690.775 9.344 692.491 9.704 693.931 10.424C695.395 11.144 696.523 12.152 697.315 13.448C698.131 14.72 698.539 16.244 698.539 18.02C698.539 20.156 698.035 22.076 697.027 23.78C696.019 25.484 694.639 26.828 692.887 27.812C691.135 28.796 689.119 29.288 686.839 29.288ZM687.199 24.68C688.303 24.68 689.275 24.416 690.115 23.888C690.979 23.336 691.651 22.58 692.131 21.62C692.611 20.66 692.851 19.544 692.851 18.272C692.851 16.976 692.467 15.932 691.699 15.14C690.931 14.348 689.851 13.952 688.459 13.952C687.355 13.952 686.371 14.228 685.507 14.78C684.667 15.308 683.995 16.052 683.491 17.012C683.011 17.972 682.771 19.088 682.771 20.36C682.771 21.68 683.155 22.736 683.923 23.528C684.691 24.296 685.783 24.68 687.199 24.68ZM715.398 9.344C717.054 9.344 718.458 9.692 719.61 10.388C720.762 11.06 721.578 12.056 722.058 13.376C722.538 14.696 722.586 16.328 722.202 18.272L720.042 29H714.426L716.514 18.632C716.802 17.216 716.682 16.124 716.154 15.356C715.65 14.588 714.714 14.204 713.346 14.204C711.93 14.204 710.742 14.612 709.782 15.428C708.846 16.244 708.198 17.492 707.838 19.172L705.894 29H700.278L704.13 9.632H709.458L708.342 15.104L707.55 13.448C708.486 12.032 709.638 11 711.006 10.352C712.398 9.68 713.862 9.344 715.398 9.344Z" fill="white"/>
</svg>
